<?xml version="1.0" standalone="no"?>
<!DOCTYPE svg PUBLIC "-//W3C//DTD SVG 20010904//EN"
 "http://www.w3.org/TR/2001/REC-SVG-20010904/DTD/svg10.dtd">
<svg version="1.0" xmlns="http://www.w3.org/2000/svg"
 width="1024.000000pt" height="1024.000000pt" viewBox="0 0 1024.000000 1024.000000"
 preserveAspectRatio="xMidYMid meet">
<metadata>
Created by potrace 1.11, written by Peter Selinger 2001-2013
</metadata>
<g transform="translate(0.000000,1024.000000) scale(0.100000,-0.100000)"
fill="#000000" stroke="none">
<path d="M0 5120 l0 -5120 5120 0 5120 0 0 5120 0 5120 -5120 0 -5120 0 0
-5120z m4535 3455 c33 -8 103 -36 155 -62 80 -39 109 -61 186 -137 76 -77 98
-106 137 -186 65 -131 81 -200 81 -340 0 -140 -17 -211 -80 -337 -138 -277
-443 -441 -748 -403 -289 36 -530 231 -621 503 -148 443 133 901 600 978 68
11 217 3 290 -16z m3266 -674 c32 -12 78 -40 103 -63 113 -99 133 -240 59
-424 l-24 -62 -577 -383 -577 -383 -367 -16 c-202 -8 -369 -18 -372 -20 -2 -3
106 -188 240 -412 l245 -408 -51 -627 c-27 -346 -50 -636 -50 -646 0 -13 159
-96 635 -334 l635 -318 0 -126 0 -127 -167 -6 c-93 -4 -258 -11 -368 -16 -110
-5 -279 -12 -375 -16 l-175 -6 -240 142 c-132 78 -329 194 -437 258 l-198 116
0 499 c0 411 -2 498 -13 495 -8 -2 -172 -57 -365 -123 l-352 -120 -2 -640 -3
-640 -215 3 c-118 1 -281 5 -363 8 l-147 6 2 881 3 881 230 83 c666 239 765
276 765 284 0 7 -323 504 -340 522 -4 5 -145 -93 -313 -216 -167 -124 -313
-230 -323 -237 -16 -9 -110 18 -524 150 -278 89 -582 186 -676 216 l-171 54
-29 82 c-25 72 -29 97 -29 188 0 98 2 110 32 173 32 68 138 187 166 187 6 0
86 -20 177 -44 91 -24 208 -56 260 -69 52 -14 213 -58 357 -96 144 -39 267
-71 273 -71 5 0 227 170 492 378 l483 377 705 5 705 6 530 342 530 342 80 -4
c50 -2 101 -11 136 -25z m-6256 -3976 c109 -65 233 -133 274 -152 240 -109
612 -202 1076 -267 718 -101 1771 -150 2730 -126 253 6 708 15 1010 20 539 9
749 15 1445 46 190 8 461 18 603 21 l257 6 0 -79 c0 -223 -75 -362 -265 -493
-661 -457 -2604 -631 -4463 -400 -1251 155 -2160 459 -2557 854 -116 116 -161
194 -259 456 -46 123 -88 233 -92 244 -8 19 -7 19 16 4 14 -9 115 -69 225
-134z m6316 -1506 c-6 -24 -11 -83 -11 -130 0 -117 30 -177 143 -285 91 -88
176 -149 375 -274 73 -45 131 -84 130 -86 -7 -6 -381 16 -543 32 -457 44 -702
146 -886 366 -51 62 -192 269 -186 274 2 2 88 13 193 24 240 26 481 63 654 98
74 15 136 27 138 26 1 -1 -2 -21 -7 -45z"/>
</g>
</svg>
